<mxfile host="app.diagrams.net" agent="Mozilla/5.0 (Windows NT 10.0; Win64; x64) AppleWebKit/537.36 (KHTML, like Gecko) Chrome/133.0.0.0 Safari/537.36 Edg/133.0.0.0" version="25.0.3">
  <diagram name="Page-1" id="zg5erqID-LCshBd-rlcx">
    <mxGraphModel dx="2227" dy="2294" grid="0" gridSize="10" guides="1" tooltips="1" connect="1" arrows="1" fold="1" page="1" pageScale="1" pageWidth="1654" pageHeight="1169" math="0" shadow="0">
      <root>
        <mxCell id="0" />
        <mxCell id="1" parent="0" />
        <mxCell id="M4I9pePaIoWxUZszSjGP-32" value="&lt;b&gt;Simple logging to Excel Online Sheet &lt;/b&gt;- &lt;i&gt;repurpose for your needs e.g. send to Splunk, ELK or Azure Log Analytics&lt;/i&gt;&amp;nbsp;" style="rounded=1;whiteSpace=wrap;html=1;fillColor=#f5f5f5;strokeColor=#C4C4C4;fontColor=#333333;fontFamily=Roboto;fontSource=https%3A%2F%2Ffonts.googleapis.com%2Fcss%3Ffamily%3DRoboto;labelBackgroundColor=none;labelPosition=center;verticalLabelPosition=top;align=center;verticalAlign=bottom;fontSize=10;fillStyle=zigzag-line;strokeWidth=1;" parent="1" vertex="1">
          <mxGeometry x="610" y="-650" width="600" height="110" as="geometry" />
        </mxCell>
        <mxCell id="M4I9pePaIoWxUZszSjGP-1" value="&lt;span&gt;Windows Autopilot &lt;br&gt;Bulk Deregistration PowerApp&lt;/span&gt;" style="image;aspect=fixed;html=1;points=[];align=center;fontSize=16;image=img/lib/azure2/power_platform/PowerApps.svg;fontFamily=Roboto;fontSource=https%3A%2F%2Ffonts.googleapis.com%2Fcss%3Ffamily%3DRoboto;labelBackgroundColor=none;fontStyle=0" parent="1" vertex="1">
          <mxGeometry x="419.5" y="-800" width="68" height="65.16" as="geometry" />
        </mxCell>
        <mxCell id="M4I9pePaIoWxUZszSjGP-2" value="L1/L2 Service Desk" style="image;aspect=fixed;html=1;points=[];align=center;fontSize=12;image=img/lib/azure2/identity/Users.svg;fontFamily=Roboto;fontSource=https%3A%2F%2Ffonts.googleapis.com%2Fcss%3Ffamily%3DRoboto;labelBackgroundColor=none;" parent="1" vertex="1">
          <mxGeometry x="200" y="-838" width="36.57" height="40" as="geometry" />
        </mxCell>
        <mxCell id="M4I9pePaIoWxUZszSjGP-10" value="Autopilot Devices" style="group;labelPosition=center;verticalLabelPosition=bottom;align=center;verticalAlign=top;fontFamily=Roboto;fontSource=https%3A%2F%2Ffonts.googleapis.com%2Fcss%3Ffamily%3DRoboto;labelBackgroundColor=none;" parent="1" vertex="1" connectable="0">
          <mxGeometry x="1440" y="-810" width="65" height="70" as="geometry" />
        </mxCell>
        <mxCell id="M4I9pePaIoWxUZszSjGP-7" value="" style="image;aspect=fixed;perimeter=ellipsePerimeter;html=1;align=center;shadow=0;dashed=0;spacingTop=3;image=img/lib/active_directory/laptop_client.svg;fontFamily=Roboto;fontSource=https%3A%2F%2Ffonts.googleapis.com%2Fcss%3Ffamily%3DRoboto;labelBackgroundColor=none;" parent="M4I9pePaIoWxUZszSjGP-10" vertex="1">
          <mxGeometry width="45" height="50" as="geometry" />
        </mxCell>
        <mxCell id="M4I9pePaIoWxUZszSjGP-8" value="" style="image;aspect=fixed;perimeter=ellipsePerimeter;html=1;align=center;shadow=0;dashed=0;spacingTop=3;image=img/lib/active_directory/laptop_client.svg;fontFamily=Roboto;fontSource=https%3A%2F%2Ffonts.googleapis.com%2Fcss%3Ffamily%3DRoboto;labelBackgroundColor=none;" parent="M4I9pePaIoWxUZszSjGP-10" vertex="1">
          <mxGeometry x="10" y="10" width="45" height="50" as="geometry" />
        </mxCell>
        <mxCell id="M4I9pePaIoWxUZszSjGP-9" value="" style="image;aspect=fixed;perimeter=ellipsePerimeter;html=1;align=center;shadow=0;dashed=0;spacingTop=3;image=img/lib/active_directory/laptop_client.svg;fontFamily=Roboto;fontSource=https%3A%2F%2Ffonts.googleapis.com%2Fcss%3Ffamily%3DRoboto;labelBackgroundColor=none;" parent="M4I9pePaIoWxUZszSjGP-10" vertex="1">
          <mxGeometry x="20" y="20" width="45" height="50" as="geometry" />
        </mxCell>
        <mxCell id="M4I9pePaIoWxUZszSjGP-13" value="On-site IT" style="image;aspect=fixed;html=1;points=[];align=center;fontSize=12;image=img/lib/azure2/identity/Users.svg;fontFamily=Roboto;fontSource=https%3A%2F%2Ffonts.googleapis.com%2Fcss%3Ffamily%3DRoboto;labelBackgroundColor=none;" parent="1" vertex="1">
          <mxGeometry x="123.43" y="-794" width="36.57" height="40" as="geometry" />
        </mxCell>
        <mxCell id="M4I9pePaIoWxUZszSjGP-18" style="edgeStyle=orthogonalEdgeStyle;rounded=0;orthogonalLoop=1;jettySize=auto;html=1;curved=1;strokeWidth=2;fillColor=#dae8fc;strokeColor=#6c8ebf;fontFamily=Roboto;fontSource=https%3A%2F%2Ffonts.googleapis.com%2Fcss%3Ffamily%3DRoboto;labelBackgroundColor=none;" parent="1" source="M4I9pePaIoWxUZszSjGP-15" target="M4I9pePaIoWxUZszSjGP-29" edge="1">
          <mxGeometry relative="1" as="geometry">
            <mxPoint x="980" y="-805" as="targetPoint" />
          </mxGeometry>
        </mxCell>
        <mxCell id="M4I9pePaIoWxUZszSjGP-15" value="Intune-GetWindowsAutopilotDevices" style="image;aspect=fixed;html=1;points=[];align=center;fontSize=12;image=img/lib/azure2/power_platform/PowerAutomate.svg;fontFamily=Roboto;fontSource=https%3A%2F%2Ffonts.googleapis.com%2Fcss%3Ffamily%3DRoboto;labelBackgroundColor=none;" parent="1" vertex="1">
          <mxGeometry x="720" y="-820" width="37.89" height="30" as="geometry" />
        </mxCell>
        <mxCell id="M4I9pePaIoWxUZszSjGP-16" value="Intune-DeleteWindowsAutopilotDevice" style="image;aspect=fixed;html=1;points=[];align=center;fontSize=12;image=img/lib/azure2/power_platform/PowerAutomate.svg;fontFamily=Roboto;fontSource=https%3A%2F%2Ffonts.googleapis.com%2Fcss%3Ffamily%3DRoboto;labelBackgroundColor=none;" parent="1" vertex="1">
          <mxGeometry x="720" y="-750" width="37.89" height="30" as="geometry" />
        </mxCell>
        <mxCell id="M4I9pePaIoWxUZszSjGP-17" value="AuditLogger" style="image;aspect=fixed;html=1;points=[];align=center;fontSize=12;image=img/lib/azure2/power_platform/PowerAutomate.svg;fontFamily=Roboto;fontSource=https%3A%2F%2Ffonts.googleapis.com%2Fcss%3Ffamily%3DRoboto;labelBackgroundColor=none;" parent="1" vertex="1">
          <mxGeometry x="650" y="-625" width="37.89" height="30" as="geometry" />
        </mxCell>
        <mxCell id="M4I9pePaIoWxUZszSjGP-19" value="Fetch secrets" style="edgeStyle=orthogonalEdgeStyle;rounded=0;orthogonalLoop=1;jettySize=auto;html=1;curved=1;strokeWidth=2;fillColor=#dae8fc;strokeColor=#6c8ebf;exitX=0.897;exitY=0.5;exitDx=0;exitDy=0;exitPerimeter=0;entryX=0.009;entryY=0.458;entryDx=0;entryDy=0;entryPerimeter=0;fontFamily=Roboto;fontSource=https%3A%2F%2Ffonts.googleapis.com%2Fcss%3Ffamily%3DRoboto;labelBackgroundColor=none;fontSize=10;fontStyle=0;fontColor=#999999;" parent="1" source="M4I9pePaIoWxUZszSjGP-16" target="M4I9pePaIoWxUZszSjGP-29" edge="1">
          <mxGeometry x="0.6595" y="14" relative="1" as="geometry">
            <mxPoint x="768" y="-795" as="sourcePoint" />
            <mxPoint x="980" y="-806" as="targetPoint" />
            <mxPoint as="offset" />
          </mxGeometry>
        </mxCell>
        <mxCell id="M4I9pePaIoWxUZszSjGP-20" value="User permission&lt;br&gt;Office365 Excel Online" style="image;aspect=fixed;html=1;points=[];align=center;fontSize=12;image=img/lib/azure2/identity/Users.svg;fontFamily=Roboto;fontSource=https%3A%2F%2Ffonts.googleapis.com%2Fcss%3Ffamily%3DRoboto;labelBackgroundColor=none;" parent="1" vertex="1">
          <mxGeometry x="850" y="-630" width="36.57" height="40" as="geometry" />
        </mxCell>
        <mxCell id="M4I9pePaIoWxUZszSjGP-21" value="AutopilotDeregistrationLog.xlsx" style="shape=image;html=1;verticalAlign=top;verticalLabelPosition=bottom;labelBackgroundColor=none;imageAspect=0;aspect=fixed;image=https://cdn3.iconfinder.com/data/icons/document-icons-2/30/647702-excel-128.png;fontFamily=Roboto;fontSource=https%3A%2F%2Ffonts.googleapis.com%2Fcss%3Ffamily%3DRoboto;" parent="1" vertex="1">
          <mxGeometry x="1080" y="-635" width="50" height="50" as="geometry" />
        </mxCell>
        <mxCell id="M4I9pePaIoWxUZszSjGP-22" style="edgeStyle=orthogonalEdgeStyle;rounded=0;orthogonalLoop=1;jettySize=auto;html=1;curved=1;strokeWidth=2;fillColor=#dae8fc;strokeColor=#6c8ebf;entryX=0;entryY=0.475;entryDx=0;entryDy=0;entryPerimeter=0;fontFamily=Roboto;fontSource=https%3A%2F%2Ffonts.googleapis.com%2Fcss%3Ffamily%3DRoboto;labelBackgroundColor=none;" parent="1" target="M4I9pePaIoWxUZszSjGP-20" edge="1">
          <mxGeometry relative="1" as="geometry">
            <mxPoint x="690" y="-611" as="sourcePoint" />
            <mxPoint x="920" y="-741" as="targetPoint" />
          </mxGeometry>
        </mxCell>
        <mxCell id="M4I9pePaIoWxUZszSjGP-23" style="edgeStyle=orthogonalEdgeStyle;rounded=0;orthogonalLoop=1;jettySize=auto;html=1;curved=1;strokeWidth=2;fillColor=#dae8fc;strokeColor=#6c8ebf;entryX=0;entryY=0.5;entryDx=0;entryDy=0;fontFamily=Roboto;fontSource=https%3A%2F%2Ffonts.googleapis.com%2Fcss%3Ffamily%3DRoboto;labelBackgroundColor=none;" parent="1" source="M4I9pePaIoWxUZszSjGP-20" target="M4I9pePaIoWxUZszSjGP-21" edge="1">
          <mxGeometry relative="1" as="geometry">
            <mxPoint x="950" y="-610" as="sourcePoint" />
            <mxPoint x="920" y="-601" as="targetPoint" />
          </mxGeometry>
        </mxCell>
        <mxCell id="M4I9pePaIoWxUZszSjGP-25" style="edgeStyle=orthogonalEdgeStyle;rounded=0;orthogonalLoop=1;jettySize=auto;html=1;curved=1;strokeWidth=2;fillColor=#dae8fc;strokeColor=#6c8ebf;fontFamily=Roboto;fontSource=https%3A%2F%2Ffonts.googleapis.com%2Fcss%3Ffamily%3DRoboto;labelBackgroundColor=none;" parent="1" source="M4I9pePaIoWxUZszSjGP-1" target="M4I9pePaIoWxUZszSjGP-15" edge="1">
          <mxGeometry relative="1" as="geometry">
            <mxPoint x="460" y="-819.68" as="sourcePoint" />
            <mxPoint x="682" y="-819.68" as="targetPoint" />
          </mxGeometry>
        </mxCell>
        <mxCell id="M4I9pePaIoWxUZszSjGP-26" style="edgeStyle=orthogonalEdgeStyle;rounded=0;orthogonalLoop=1;jettySize=auto;html=1;curved=1;strokeWidth=2;fillColor=#dae8fc;strokeColor=#6c8ebf;fontFamily=Roboto;fontSource=https%3A%2F%2Ffonts.googleapis.com%2Fcss%3Ffamily%3DRoboto;labelBackgroundColor=none;" parent="1" source="M4I9pePaIoWxUZszSjGP-1" target="M4I9pePaIoWxUZszSjGP-16" edge="1">
          <mxGeometry relative="1" as="geometry">
            <mxPoint x="478" y="-747" as="sourcePoint" />
            <mxPoint x="730" y="-795" as="targetPoint" />
          </mxGeometry>
        </mxCell>
        <mxCell id="M4I9pePaIoWxUZszSjGP-27" value="On deletion" style="edgeStyle=orthogonalEdgeStyle;rounded=0;orthogonalLoop=1;jettySize=auto;html=1;curved=1;strokeWidth=2;fillColor=#dae8fc;strokeColor=#6c8ebf;exitX=0.971;exitY=0.506;exitDx=0;exitDy=0;exitPerimeter=0;entryX=0.026;entryY=0.567;entryDx=0;entryDy=0;entryPerimeter=0;fontFamily=Roboto;fontSource=https%3A%2F%2Ffonts.googleapis.com%2Fcss%3Ffamily%3DRoboto;labelBackgroundColor=none;fontStyle=2;fontSize=10;fontColor=#999999;" parent="1" source="M4I9pePaIoWxUZszSjGP-1" target="M4I9pePaIoWxUZszSjGP-17" edge="1">
          <mxGeometry x="0.0493" y="31" relative="1" as="geometry">
            <mxPoint x="478" y="-747" as="sourcePoint" />
            <mxPoint x="730" y="-725" as="targetPoint" />
            <mxPoint as="offset" />
          </mxGeometry>
        </mxCell>
        <mxCell id="M4I9pePaIoWxUZszSjGP-28" value="Intune Enterprise App" style="image;sketch=0;aspect=fixed;html=1;points=[];align=center;fontSize=12;image=img/lib/mscae/App_Registrations.svg;fontFamily=Roboto;fontSource=https%3A%2F%2Ffonts.googleapis.com%2Fcss%3Ffamily%3DRoboto;labelBackgroundColor=none;" parent="1" vertex="1">
          <mxGeometry x="1094" y="-799" width="50" height="50" as="geometry" />
        </mxCell>
        <mxCell id="M4I9pePaIoWxUZszSjGP-29" value="Azure Key Vault" style="image;aspect=fixed;html=1;points=[];align=center;fontSize=12;image=img/lib/azure2/security/Key_Vaults.svg;fontFamily=Roboto;fontSource=https%3A%2F%2Ffonts.googleapis.com%2Fcss%3Ffamily%3DRoboto;labelBackgroundColor=none;" parent="1" vertex="1">
          <mxGeometry x="950" y="-798" width="48" height="48" as="geometry" />
        </mxCell>
        <mxCell id="M4I9pePaIoWxUZszSjGP-31" style="edgeStyle=orthogonalEdgeStyle;rounded=0;orthogonalLoop=1;jettySize=auto;html=1;curved=1;strokeWidth=2;fillColor=#dae8fc;strokeColor=#6c8ebf;exitX=0.958;exitY=0.5;exitDx=0;exitDy=0;exitPerimeter=0;fontFamily=Roboto;fontSource=https%3A%2F%2Ffonts.googleapis.com%2Fcss%3Ffamily%3DRoboto;labelBackgroundColor=none;" parent="1" source="M4I9pePaIoWxUZszSjGP-29" target="M4I9pePaIoWxUZszSjGP-28" edge="1">
          <mxGeometry relative="1" as="geometry">
            <mxPoint x="820" y="-850.68" as="sourcePoint" />
            <mxPoint x="1012" y="-819.68" as="targetPoint" />
          </mxGeometry>
        </mxCell>
        <mxCell id="M4I9pePaIoWxUZszSjGP-37" style="edgeStyle=orthogonalEdgeStyle;rounded=0;orthogonalLoop=1;jettySize=auto;html=1;curved=1;strokeWidth=2;fillColor=#dae8fc;strokeColor=#6c8ebf;fontFamily=Roboto;fontSource=https%3A%2F%2Ffonts.googleapis.com%2Fcss%3Ffamily%3DRoboto;labelBackgroundColor=none;exitX=0.971;exitY=0.5;exitDx=0;exitDy=0;exitPerimeter=0;" parent="1" source="M4I9pePaIoWxUZszSjGP-2" target="M4I9pePaIoWxUZszSjGP-1" edge="1">
          <mxGeometry relative="1" as="geometry">
            <mxPoint x="497" y="-757" as="sourcePoint" />
            <mxPoint x="730" y="-795" as="targetPoint" />
          </mxGeometry>
        </mxCell>
        <mxCell id="M4I9pePaIoWxUZszSjGP-38" style="edgeStyle=orthogonalEdgeStyle;rounded=0;orthogonalLoop=1;jettySize=auto;html=1;curved=1;strokeWidth=2;fillColor=#dae8fc;strokeColor=#6c8ebf;fontFamily=Roboto;fontSource=https%3A%2F%2Ffonts.googleapis.com%2Fcss%3Ffamily%3DRoboto;labelBackgroundColor=none;exitX=0.902;exitY=0.488;exitDx=0;exitDy=0;exitPerimeter=0;entryX=0.002;entryY=0.491;entryDx=0;entryDy=0;entryPerimeter=0;" parent="1" source="M4I9pePaIoWxUZszSjGP-13" target="M4I9pePaIoWxUZszSjGP-1" edge="1">
          <mxGeometry relative="1" as="geometry">
            <mxPoint x="106.5" y="-710" as="sourcePoint" />
            <mxPoint x="329.5" y="-677" as="targetPoint" />
          </mxGeometry>
        </mxCell>
        <mxCell id="M4I9pePaIoWxUZszSjGP-39" value="HTTP" style="edgeStyle=orthogonalEdgeStyle;rounded=0;orthogonalLoop=1;jettySize=auto;html=1;curved=1;strokeWidth=2;fillColor=#dae8fc;strokeColor=#6c8ebf;fontFamily=Roboto;fontSource=https%3A%2F%2Ffonts.googleapis.com%2Fcss%3Ffamily%3DRoboto;labelBackgroundColor=none;fontColor=#999999;" parent="1" source="M4I9pePaIoWxUZszSjGP-28" target="M4I9pePaIoWxUZszSjGP-40" edge="1">
          <mxGeometry x="0.0115" y="15" relative="1" as="geometry">
            <mxPoint x="1190" y="-774.4200000000001" as="sourcePoint" />
            <mxPoint x="1230" y="-774" as="targetPoint" />
            <mxPoint as="offset" />
          </mxGeometry>
        </mxCell>
        <mxCell id="M4I9pePaIoWxUZszSjGP-40" value="Microsoft Graph API" style="shape=image;verticalLabelPosition=bottom;labelBackgroundColor=default;verticalAlign=top;aspect=fixed;imageAspect=0;image=https://www.drupal.org/files/project-images/Graph%20API%20logo.png;fontFamily=Roboto;fontSource=https%3A%2F%2Ffonts.googleapis.com%2Fcss%3Ffamily%3DRoboto;" parent="1" vertex="1">
          <mxGeometry x="1230" y="-800" width="57.66" height="50" as="geometry" />
        </mxCell>
        <mxCell id="M4I9pePaIoWxUZszSjGP-42" value="GET" style="edgeStyle=orthogonalEdgeStyle;rounded=0;orthogonalLoop=1;jettySize=auto;html=1;curved=1;strokeWidth=2;fillColor=#dae8fc;strokeColor=#6c8ebf;fontFamily=Roboto;fontSource=https%3A%2F%2Ffonts.googleapis.com%2Fcss%3Ffamily%3DRoboto;labelBackgroundColor=none;entryX=0;entryY=0.25;entryDx=0;entryDy=0;fontSize=9;fontColor=#00CC00;" parent="1" target="M4I9pePaIoWxUZszSjGP-8" edge="1">
          <mxGeometry x="0.4073" y="14" relative="1" as="geometry">
            <mxPoint x="1287.66" y="-774.75" as="sourcePoint" />
            <mxPoint x="1373.66" y="-775.75" as="targetPoint" />
            <mxPoint as="offset" />
          </mxGeometry>
        </mxCell>
        <mxCell id="M4I9pePaIoWxUZszSjGP-44" value="DELETE" style="edgeStyle=orthogonalEdgeStyle;rounded=0;orthogonalLoop=1;jettySize=auto;html=1;curved=1;strokeWidth=2;fillColor=#dae8fc;strokeColor=#6c8ebf;fontFamily=Roboto;fontSource=https%3A%2F%2Ffonts.googleapis.com%2Fcss%3Ffamily%3DRoboto;labelBackgroundColor=none;entryX=0;entryY=0.75;entryDx=0;entryDy=0;exitX=1;exitY=0.5;exitDx=0;exitDy=0;fontStyle=0;fontSize=9;fontColor=#FF3333;" parent="1" source="M4I9pePaIoWxUZszSjGP-40" target="M4I9pePaIoWxUZszSjGP-9" edge="1">
          <mxGeometry x="0.3632" y="-14" relative="1" as="geometry">
            <mxPoint x="1297.66" y="-764.75" as="sourcePoint" />
            <mxPoint x="1462" y="-776" as="targetPoint" />
            <mxPoint as="offset" />
          </mxGeometry>
        </mxCell>
        <mxCell id="M4I9pePaIoWxUZszSjGP-45" value="L3 Admin" style="image;aspect=fixed;html=1;points=[];align=center;fontSize=12;image=img/lib/azure2/identity/Users.svg;fontFamily=Roboto;fontSource=https%3A%2F%2Ffonts.googleapis.com%2Fcss%3Ffamily%3DRoboto;labelBackgroundColor=none;" parent="1" vertex="1">
          <mxGeometry x="200" y="-755" width="36.57" height="40" as="geometry" />
        </mxCell>
        <mxCell id="M4I9pePaIoWxUZszSjGP-47" style="edgeStyle=orthogonalEdgeStyle;rounded=0;orthogonalLoop=1;jettySize=auto;html=1;curved=1;strokeWidth=2;fillColor=#dae8fc;strokeColor=#6c8ebf;fontFamily=Roboto;fontSource=https%3A%2F%2Ffonts.googleapis.com%2Fcss%3Ffamily%3DRoboto;labelBackgroundColor=none;exitX=0.994;exitY=0.488;exitDx=0;exitDy=0;exitPerimeter=0;entryX=-0.01;entryY=0.478;entryDx=0;entryDy=0;entryPerimeter=0;" parent="1" source="M4I9pePaIoWxUZszSjGP-45" target="M4I9pePaIoWxUZszSjGP-1" edge="1">
          <mxGeometry relative="1" as="geometry">
            <mxPoint x="203" y="-705" as="sourcePoint" />
            <mxPoint x="430" y="-758" as="targetPoint" />
          </mxGeometry>
        </mxCell>
        <UserObject label="&lt;font face=&quot;Roboto&quot; data-font-src=&quot;https://fonts.googleapis.com/css?family=Roboto&quot;&gt;HUGIL.DEV&lt;/font&gt;" link="https://hugil.dev" linkTarget="_blank" id="M4I9pePaIoWxUZszSjGP-50">
          <mxCell style="text;html=1;align=center;verticalAlign=middle;whiteSpace=wrap;rounded=0;fontStyle=1;fontSize=48;" parent="1" vertex="1">
            <mxGeometry x="41" y="-1140" width="259" height="67" as="geometry" />
          </mxCell>
        </UserObject>
        <UserObject label="&lt;font face=&quot;Roboto&quot; data-font-src=&quot;https://fonts.googleapis.com/css?family=Roboto&quot;&gt;Windows Autopilot: Delegating bulk deletion of hashes with PowerApp&lt;/font&gt;" link="https://hugil.dev" linkTarget="_blank" id="wE0HOpQL2px5iwexbR54-33">
          <mxCell style="text;html=1;align=center;verticalAlign=middle;whiteSpace=wrap;rounded=0;fontStyle=1;fontSize=35;fontColor=#4D4D4D;" vertex="1" parent="1">
            <mxGeometry x="378" y="-1111" width="1123" height="40" as="geometry" />
          </mxCell>
        </UserObject>
      </root>
    </mxGraphModel>
  </diagram>
</mxfile>
